<?xml version="1.0" standalone="no"?>
<!DOCTYPE svg PUBLIC "-//W3C//DTD SVG 20010904//EN"
 "http://www.w3.org/TR/2001/REC-SVG-20010904/DTD/svg10.dtd">
<svg version="1.0" xmlns="http://www.w3.org/2000/svg"
 width="179.000000pt" height="179.000000pt" viewBox="0 0 179.000000 179.000000"
 preserveAspectRatio="xMidYMid meet">
<metadata>
Created by potrace 1.11, written by Peter Selinger 2001-2013
</metadata>
<g transform="translate(0.000000,179.000000) scale(0.100000,-0.100000)"
fill="#000000" stroke="none">
<path d="M127 1779 c-49 -14 -93 -56 -105 -103 -13 -46 -3 -113 38 -241 16
-49 72 -231 124 -403 101 -329 133 -417 192 -535 132 -262 335 -426 599 -483
17 -3 80 -9 142 -11 288 -13 500 114 596 357 84 213 61 503 -62 765 -103 219
-251 350 -449 396 -109 25 -300 6 -387 -38 -93 -48 -107 -138 -38 -231 42 -57
104 -69 206 -42 196 52 306 -4 401 -204 53 -110 69 -178 64 -261 -11 -162
-127 -270 -304 -282 -105 -8 -163 14 -240 91 -94 94 -123 155 -259 556 -158
466 -181 523 -232 581 -25 27 -63 59 -85 70 -46 24 -148 32 -201 18z"/>
</g>
</svg>
