<?xml version="1.0" encoding="UTF-8" standalone="no"?>
<!DOCTYPE svg PUBLIC "-//W3C//DTD SVG 1.1//EN" "http://www.w3.org/Graphics/SVG/1.1/DTD/svg11.dtd">
<svg width="100%" height="100%" viewBox="0 0 500 500" version="1.1" xmlns="http://www.w3.org/2000/svg" xmlns:xlink="http://www.w3.org/1999/xlink" xml:space="preserve" xmlns:serif="http://www.serif.com/" style="fill-rule:evenodd;clip-rule:evenodd;stroke-linejoin:round;stroke-miterlimit:2;">
    <g transform="matrix(0.936,0,0,0.936,15,15)">
        <path d="M250,0C387.979,0 500,112.021 500,250C500,387.979 387.979,500 250,500C112.021,500 0,387.979 0,250C0,112.021 112.021,0 250,0ZM250,130C316.23,130 370,183.77 370,250C370,316.23 316.23,370 250,370C183.77,370 130,316.23 130,250C130,183.77 183.77,130 250,130Z" style="fill:rgb(66,133,91);"/>
        <path d="M0,250L0,500L94,403L0,250Z" style="fill:rgb(66,133,91);"/>
    </g>
</svg>
