<?xml version="1.0" encoding="UTF-8" standalone="no"?>
<!DOCTYPE svg PUBLIC "-//W3C//DTD SVG 1.1//EN" "http://www.w3.org/Graphics/SVG/1.1/DTD/svg11.dtd">
<svg width="100%" height="100%" viewBox="0 0 800 300" version="1.1" xmlns="http://www.w3.org/2000/svg" xmlns:xlink="http://www.w3.org/1999/xlink" xml:space="preserve" xmlns:serif="http://www.serif.com/" style="fill-rule:evenodd;clip-rule:evenodd;stroke-linejoin:round;stroke-miterlimit:2;">
    <g transform="matrix(1.67555,0,0,1.67555,-901.337,-221.416)">
        <g transform="matrix(149.377,0,0,149.377,570,262)">
            <path d="M0.315,-0.505C0.36,-0.505 0.399,-0.494 0.434,-0.472C0.469,-0.45 0.496,-0.42 0.517,-0.382C0.537,-0.343 0.547,-0.299 0.547,-0.25C0.547,-0.201 0.537,-0.158 0.517,-0.119C0.496,-0.08 0.469,-0.05 0.434,-0.028C0.399,-0.005 0.359,0.006 0.315,0.006C0.293,0.006 0.272,0.003 0.252,-0.004C0.231,-0.01 0.212,-0.019 0.195,-0.031C0.178,-0.042 0.162,-0.057 0.148,-0.074C0.133,-0.091 0.121,-0.111 0.11,-0.133L0.123,-0.147L0.123,0.18C0.123,0.185 0.121,0.19 0.117,0.194C0.114,0.198 0.109,0.2 0.103,0.2C0.098,0.2 0.093,0.198 0.089,0.194C0.085,0.19 0.083,0.185 0.083,0.18L0.083,-0.485C0.083,-0.49 0.085,-0.495 0.089,-0.499C0.092,-0.503 0.097,-0.505 0.103,-0.505C0.109,-0.505 0.114,-0.503 0.117,-0.499C0.121,-0.495 0.123,-0.49 0.123,-0.485L0.123,-0.357L0.11,-0.364C0.119,-0.389 0.131,-0.41 0.145,-0.428C0.159,-0.446 0.175,-0.461 0.193,-0.472C0.211,-0.483 0.23,-0.492 0.251,-0.497C0.272,-0.502 0.293,-0.505 0.315,-0.505ZM0.313,-0.467C0.275,-0.467 0.242,-0.458 0.213,-0.439C0.184,-0.42 0.161,-0.395 0.144,-0.363C0.127,-0.33 0.119,-0.293 0.119,-0.25C0.119,-0.208 0.127,-0.171 0.144,-0.138C0.161,-0.105 0.184,-0.079 0.213,-0.06C0.242,-0.041 0.275,-0.032 0.313,-0.032C0.35,-0.032 0.384,-0.041 0.412,-0.06C0.442,-0.079 0.465,-0.105 0.482,-0.138C0.499,-0.171 0.507,-0.208 0.507,-0.25C0.507,-0.292 0.499,-0.329 0.482,-0.362C0.465,-0.395 0.442,-0.42 0.412,-0.439C0.384,-0.458 0.35,-0.467 0.313,-0.467Z" style="fill:rgb(51,51,51);fill-rule:nonzero;"/>
        </g>
        <g transform="matrix(149.377,0,0,149.377,659.477,262)">
            <path d="M0.128,-0.02C0.128,-0.015 0.126,-0.01 0.122,-0.006C0.118,-0.002 0.113,-0 0.108,-0C0.102,-0 0.097,-0.002 0.094,-0.006C0.09,-0.01 0.088,-0.015 0.088,-0.02L0.088,-0.72C0.088,-0.725 0.09,-0.73 0.094,-0.734C0.098,-0.738 0.103,-0.74 0.108,-0.74C0.114,-0.74 0.119,-0.738 0.123,-0.734C0.126,-0.73 0.128,-0.725 0.128,-0.72L0.128,-0.02Z" style="fill:rgb(51,51,51);fill-rule:nonzero;"/>
        </g>
        <g transform="matrix(149.377,0,0,149.377,690.248,262)">
            <path d="M0.308,0.01C0.258,0.01 0.214,-0.001 0.175,-0.022C0.137,-0.043 0.107,-0.074 0.085,-0.113C0.063,-0.152 0.052,-0.197 0.052,-0.25C0.052,-0.306 0.063,-0.354 0.085,-0.393C0.106,-0.432 0.134,-0.463 0.169,-0.484C0.203,-0.504 0.239,-0.515 0.278,-0.515C0.306,-0.515 0.333,-0.51 0.36,-0.501C0.387,-0.493 0.41,-0.478 0.432,-0.46C0.453,-0.441 0.469,-0.417 0.483,-0.389C0.496,-0.36 0.503,-0.326 0.504,-0.287C0.504,-0.282 0.502,-0.277 0.498,-0.273C0.494,-0.268 0.489,-0.266 0.484,-0.266L0.076,-0.266L0.07,-0.304L0.473,-0.304L0.463,-0.295L0.463,-0.313C0.46,-0.348 0.449,-0.378 0.43,-0.402C0.41,-0.426 0.388,-0.444 0.361,-0.457C0.334,-0.469 0.307,-0.475 0.278,-0.475C0.258,-0.475 0.237,-0.47 0.215,-0.462C0.193,-0.453 0.173,-0.439 0.154,-0.421C0.135,-0.402 0.12,-0.379 0.109,-0.351C0.097,-0.323 0.091,-0.29 0.091,-0.253C0.091,-0.212 0.099,-0.175 0.116,-0.141C0.132,-0.107 0.156,-0.08 0.189,-0.059C0.221,-0.038 0.261,-0.028 0.308,-0.028C0.331,-0.028 0.352,-0.032 0.372,-0.04C0.392,-0.047 0.41,-0.057 0.426,-0.07C0.442,-0.083 0.455,-0.096 0.465,-0.111C0.47,-0.117 0.476,-0.12 0.482,-0.12C0.487,-0.12 0.491,-0.118 0.494,-0.115C0.497,-0.111 0.499,-0.107 0.499,-0.102C0.499,-0.097 0.498,-0.093 0.495,-0.09C0.474,-0.063 0.448,-0.04 0.416,-0.02C0.383,-0 0.347,0.01 0.308,0.01Z" style="fill:rgb(51,51,51);fill-rule:nonzero;"/>
        </g>
        <g transform="matrix(149.377,0,0,149.377,771.808,262)">
            <path d="M0.061,-0.51C0.068,-0.51 0.073,-0.507 0.077,-0.501L0.438,-0.028C0.441,-0.025 0.442,-0.021 0.442,-0.016C0.442,-0.011 0.44,-0.006 0.437,-0.002C0.433,0.002 0.428,0.004 0.423,0.004C0.417,0.004 0.411,0.001 0.406,-0.005L0.044,-0.477C0.041,-0.48 0.04,-0.484 0.04,-0.489C0.04,-0.495 0.042,-0.5 0.047,-0.504C0.051,-0.508 0.056,-0.51 0.061,-0.51ZM0.061,0.004C0.056,0.004 0.052,0.002 0.048,-0.001C0.044,-0.004 0.042,-0.008 0.042,-0.015C0.042,-0.02 0.043,-0.024 0.046,-0.027L0.221,-0.254L0.245,-0.223L0.077,-0.004C0.073,0.001 0.068,0.004 0.061,0.004ZM0.423,-0.51C0.43,-0.51 0.435,-0.508 0.438,-0.505C0.441,-0.502 0.442,-0.498 0.442,-0.493C0.442,-0.491 0.442,-0.489 0.441,-0.487C0.44,-0.484 0.438,-0.482 0.437,-0.48L0.262,-0.246L0.241,-0.281L0.406,-0.501C0.411,-0.507 0.417,-0.51 0.423,-0.51Z" style="fill:rgb(51,51,51);fill-rule:nonzero;"/>
        </g>
        <g transform="matrix(149.377,0,0,149.377,843.957,262)">
            <path d="M0.459,-0.515C0.465,-0.515 0.47,-0.513 0.473,-0.509C0.477,-0.505 0.479,-0.5 0.479,-0.495L0.479,-0.049C0.479,0.002 0.469,0.047 0.448,0.084C0.427,0.121 0.399,0.15 0.364,0.17C0.329,0.19 0.288,0.2 0.243,0.2C0.212,0.2 0.185,0.196 0.161,0.189C0.136,0.182 0.116,0.173 0.101,0.162C0.096,0.159 0.093,0.155 0.09,0.15C0.087,0.145 0.087,0.14 0.09,0.135C0.093,0.13 0.097,0.126 0.102,0.124C0.107,0.122 0.111,0.123 0.116,0.126C0.127,0.133 0.145,0.141 0.168,0.15C0.191,0.159 0.216,0.164 0.245,0.164C0.284,0.164 0.318,0.155 0.346,0.137C0.376,0.119 0.398,0.094 0.414,0.062C0.431,0.03 0.439,-0.007 0.439,-0.049L0.439,-0.123L0.441,-0.098C0.432,-0.078 0.418,-0.06 0.399,-0.043C0.38,-0.027 0.358,-0.014 0.335,-0.005C0.311,0.005 0.286,0.01 0.261,0.01C0.22,0.01 0.186,0.002 0.16,-0.015C0.133,-0.031 0.114,-0.053 0.102,-0.082C0.089,-0.111 0.083,-0.144 0.083,-0.183L0.083,-0.495C0.083,-0.5 0.085,-0.505 0.089,-0.509C0.092,-0.513 0.097,-0.515 0.103,-0.515C0.109,-0.515 0.114,-0.513 0.117,-0.509C0.121,-0.505 0.123,-0.5 0.123,-0.495L0.123,-0.183C0.123,-0.136 0.134,-0.098 0.155,-0.07C0.175,-0.042 0.211,-0.028 0.261,-0.028C0.291,-0.028 0.32,-0.035 0.346,-0.051C0.374,-0.066 0.396,-0.085 0.413,-0.109C0.43,-0.133 0.439,-0.158 0.439,-0.183L0.439,-0.495C0.439,-0.5 0.441,-0.505 0.445,-0.509C0.448,-0.513 0.453,-0.515 0.459,-0.515Z" style="fill:rgb(51,51,51);fill-rule:nonzero;"/>
        </g>
        <g transform="matrix(149.377,0,0,149.377,927.907,262)">
            <path d="M0.037,-0.503L0.269,-0.503C0.274,-0.503 0.279,-0.501 0.282,-0.497C0.286,-0.493 0.288,-0.489 0.288,-0.484C0.288,-0.479 0.286,-0.474 0.282,-0.47C0.279,-0.467 0.274,-0.465 0.269,-0.465L0.037,-0.465C0.032,-0.465 0.028,-0.467 0.024,-0.471C0.02,-0.475 0.018,-0.479 0.018,-0.484C0.018,-0.489 0.02,-0.494 0.024,-0.498C0.028,-0.501 0.032,-0.503 0.037,-0.503ZM0.139,-0.65C0.145,-0.65 0.15,-0.648 0.154,-0.644C0.157,-0.64 0.159,-0.635 0.159,-0.63L0.159,-0.109C0.159,-0.087 0.162,-0.071 0.168,-0.061C0.173,-0.05 0.18,-0.043 0.189,-0.041C0.198,-0.038 0.206,-0.036 0.214,-0.036C0.219,-0.036 0.223,-0.037 0.226,-0.038C0.229,-0.039 0.233,-0.04 0.238,-0.04C0.243,-0.04 0.247,-0.038 0.25,-0.035C0.253,-0.031 0.255,-0.027 0.255,-0.022C0.255,-0.016 0.251,-0.011 0.244,-0.007C0.236,-0.002 0.226,-0 0.215,-0C0.211,-0 0.204,-0 0.194,-0.001C0.183,-0.001 0.172,-0.004 0.161,-0.01C0.149,-0.015 0.139,-0.025 0.131,-0.041C0.123,-0.056 0.119,-0.078 0.119,-0.107L0.119,-0.63C0.119,-0.635 0.121,-0.64 0.125,-0.644C0.129,-0.648 0.134,-0.65 0.139,-0.65Z" style="fill:rgb(51,51,51);fill-rule:nonzero;"/>
        </g>
    </g>
</svg>
